<?xml version="1.0" encoding="UTF-8" standalone="no"?>
<!-- Created with Inkscape (http://www.inkscape.org/) -->

<svg
   xmlns:dc="http://purl.org/dc/elements/1.1/"
   xmlns:cc="http://creativecommons.org/ns#"
   xmlns:rdf="http://www.w3.org/1999/02/22-rdf-syntax-ns#"
   xmlns:svg="http://www.w3.org/2000/svg"
   xmlns="http://www.w3.org/2000/svg"
   xmlns:sodipodi="http://sodipodi.sourceforge.net/DTD/sodipodi-0.dtd"
   xmlns:inkscape="http://www.inkscape.org/namespaces/inkscape"
   width="256"
   height="256"
   id="svg2"
   version="1.1"
   inkscape:version="0.48.4 r9939"
   sodipodi:docname="New document 1">
  <defs
     id="defs4" />
  <sodipodi:namedview
     id="base"
     pagecolor="#ffffff"
     bordercolor="#666666"
     borderopacity="1.0"
     inkscape:pageopacity="0.0"
     inkscape:pageshadow="2"
     inkscape:zoom="1.734375"
     inkscape:cx="128"
     inkscape:cy="128"
     inkscape:document-units="px"
     inkscape:current-layer="layer1"
     showgrid="true"
     inkscape:snap-page="true"
     inkscape:snap-grids="false"
     inkscape:window-width="1291"
     inkscape:window-height="758"
     inkscape:window-x="408"
     inkscape:window-y="200"
     inkscape:window-maximized="0">
    <inkscape:grid
       type="xygrid"
       id="grid2985"
       empspacing="5"
       visible="true"
       enabled="true"
       snapvisiblegridlinesonly="true" />
  </sodipodi:namedview>
  <metadata
     id="metadata7">
    <rdf:RDF>
      <cc:Work
         rdf:about="">
        <dc:format>image/svg+xml</dc:format>
        <dc:type
           rdf:resource="http://purl.org/dc/dcmitype/StillImage" />
        <dc:title></dc:title>
      </cc:Work>
    </rdf:RDF>
  </metadata>
  <g
     inkscape:label="Layer 1"
     inkscape:groupmode="layer"
     id="layer1"
     transform="translate(0,-796.36218)">
    <path
       style="fill:#ffffff;fill-opacity:1;stroke:none"
       d="M 128 32.28125 C 75.139881 32.28125 32.28125 75.139881 32.28125 128 C 32.28125 180.86012 75.139881 223.71875 128 223.71875 C 180.86012 223.71875 223.71875 180.86012 223.71875 128 C 223.71875 75.139881 180.86012 32.28125 128 32.28125 z M 127.5625 53.59375 C 131.56247 53.5939 135.03538 54.927232 137.96875 57.59375 C 140.90204 60.26056 142.37496 63.927223 142.375 68.59375 C 142.37496 73.127214 140.90204 76.70846 137.96875 79.375 C 135.03538 82.041788 131.56247 83.37512 127.5625 83.375 C 123.42914 83.37512 119.90206 82.041788 116.96875 79.375 C 114.0354 76.70846 112.56249 73.127214 112.5625 68.59375 C 112.56249 63.927223 114.0354 60.26056 116.96875 57.59375 C 119.90206 54.927232 123.42914 53.5939 127.5625 53.59375 z M 115.5625 99.1875 L 139.75 99.1875 L 139.75 203.78125 L 115.5625 203.78125 L 115.5625 99.1875 z "
       transform="translate(0,796.36218)"
       id="path2997" />
  </g>
</svg>
