<?xml version="1.0" encoding="UTF-8" standalone="no"?>
<!-- Created with Inkscape (http://www.inkscape.org/) -->

<svg
   xmlns:dc="http://purl.org/dc/elements/1.1/"
   xmlns:cc="http://creativecommons.org/ns#"
   xmlns:rdf="http://www.w3.org/1999/02/22-rdf-syntax-ns#"
   xmlns:svg="http://www.w3.org/2000/svg"
   xmlns="http://www.w3.org/2000/svg"
   xmlns:sodipodi="http://sodipodi.sourceforge.net/DTD/sodipodi-0.dtd"
   xmlns:inkscape="http://www.inkscape.org/namespaces/inkscape"
   width="256"
   height="256"
   id="svg2"
   version="1.1"
   inkscape:version="0.48.4 r9939"
   sodipodi:docname="bug.svg">
  <defs
     id="defs4" />
  <sodipodi:namedview
     id="base"
     pagecolor="#ffffff"
     bordercolor="#666666"
     borderopacity="1.0"
     inkscape:pageopacity="0.0"
     inkscape:pageshadow="2"
     inkscape:zoom="2.8476563"
     inkscape:cx="114.93174"
     inkscape:cy="124.34809"
     inkscape:document-units="px"
     inkscape:current-layer="layer1"
     showgrid="true"
     inkscape:window-width="1582"
     inkscape:window-height="928"
     inkscape:window-x="204"
     inkscape:window-y="58"
     inkscape:window-maximized="0">
    <inkscape:grid
       type="xygrid"
       id="grid2985"
       empspacing="5"
       visible="true"
       enabled="true"
       snapvisiblegridlinesonly="true" />
  </sodipodi:namedview>
  <metadata
     id="metadata7">
    <rdf:RDF>
      <cc:Work
         rdf:about="">
        <dc:format>image/svg+xml</dc:format>
        <dc:type
           rdf:resource="http://purl.org/dc/dcmitype/StillImage" />
        <dc:title></dc:title>
      </cc:Work>
    </rdf:RDF>
  </metadata>
  <g
     inkscape:label="Layer 1"
     inkscape:groupmode="layer"
     id="layer1"
     transform="translate(0,-796.36218)">
    <path
       style="fill:#ffffff;fill-opacity:1;stroke:none"
       d="m 200.17187,838.09654 -3.6875,28.46875 -19.25,18.9375 c -5.9798,-7.03161 -13.05302,-12.75062 -20.90625,-16.75 -4.49656,3.95051 -11.2654,6.82462 -19.125,7.96875 l 0,145.06256 c 21.938,-2.8733 40.70564,-18.2195 51.15625,-39.9063 l 17.09375,18.4062 2.4375,28.6251 7.5,0.1875 -3.03125,-36.0938 -19.84375,-21.34375 c 3.0279,-9.08971 4.6875,-19.00853 4.6875,-29.375 0,-0.40986 -0.026,-0.81037 -0.0312,-1.21875 l 16.875,5.53125 16,23.84375 6.6875,-3.46875 -20.1875,-30.125 -20.09375,-6.53125 c -1.73919,-13.68161 -6.4151,-26.22581 -13.21875,-36.71875 l 19.8125,-19.4375 4.65625,-35.9375 -7.53125,-0.125 z m -143.312495,0.34375 -7.53125,0.125 4.65625,35.9375 21.125,20.75 c -6.048799,9.84533 -10.254935,21.38197 -12,33.90625 l -23.65625,7.6875 -20.1875,30.125 6.6875,3.46875 16,-23.84375 20.3125,-6.625 c -0.01863,0.77292 -0.0625,1.53426 -0.0625,2.3125 0,9.84942 1.503146,19.28721 4.25,28 l -20.46875,22 -3.03125,36.12506 7.5,-0.2188 2.4375,-28.59376 17.59375,-18.9375 c 10.32867,22.32566 29.37481,38.19856 51.718755,41.12506 l 0,-145.06256 c -7.8596,-1.14413 -14.62844,-4.01824 -19.125,-7.96875 -8.397275,4.27644 -15.927817,10.50572 -22.156255,18.21875 l -20.375,-20.0625 z m 35.625,56.59375 c 5.763004,0 10.437505,4.64325 10.437505,10.40625 0,5.76301 -4.674501,10.4375 -10.437505,10.4375 -5.763004,0 -10.4375,-4.67449 -10.4375,-10.4375 0,-5.763 4.674496,-10.40625 10.4375,-10.40625 z m 74.437495,0 c 5.763,0 10.4375,4.64325 10.4375,10.40625 0,5.76301 -4.6745,10.4375 -10.4375,10.4375 -5.763,0 -10.4375,-4.67449 -10.4375,-10.4375 0,-5.763 4.6745,-10.40625 10.4375,-10.40625 z m -62.84374,30.1875 c 8.28427,0 15,6.71573 15,15 0,8.28427 -6.71573,15 -15,15 -8.284276,0 -15.000005,-6.71573 -15.000005,-15 0,-8.28427 6.715729,-15 15.000005,-15 z m 51.24999,0 c 8.28427,0 15,6.71573 15,15 0,8.28427 -6.71573,15 -15,15 -8.28427,0 -15,-6.71573 -15,-15 0,-8.28427 6.71573,-15 15,-15 z m -61.093745,41.4375 c 6.926665,0 12.531255,5.60459 12.531255,12.53125 0,6.92667 -5.60459,12.5625 -12.531255,12.5625 -6.926666,0 -12.53125,-5.63583 -12.53125,-12.5625 0,-6.92666 5.604584,-12.53125 12.53125,-12.53125 z m 70.937495,0 c 6.92667,0 12.53125,5.60459 12.53125,12.53125 0,6.92667 -5.60458,12.5625 -12.53125,12.5625 -6.92667,0 -12.53125,-5.63583 -12.53125,-12.5625 0,-6.92666 5.60458,-12.53125 12.53125,-12.53125 z"
       id="path2987"
       inkscape:connector-curvature="0"
       sodipodi:nodetypes="ccccccccccccscccccccccccccccccccccsccccccccccccssssssssssssssssssssssssssssss" />
    <path
       style="fill:#ffffff;fill-opacity:1;stroke:none"
       d="m 89.046875,819.62779 -4.3125,2.03125 11.96875,19.46875 7.906255,2.9375 c -1.16398,2.23815 -1.78125,4.67493 -1.78125,7.21875 0,11.0457 12.02884,20 26.87499,20 14.84616,0 26.875,-8.9543 26.875,-20 0,-2.62172 -0.70536,-5.11194 -1.9375,-7.40625 l 7.375,-2.75 11.96875,-19.46875 -4.3125,-2.03125 -9.46875,15.4375 -9.65625,3.59375 c -4.92746,-4.49717 -12.436,-7.375 -20.84375,-7.375 -8.51797,0 -16.10614,2.9634 -21.03124,7.5625 l -10.156255,-3.78125 z"
       id="path3759"
       inkscape:connector-curvature="0"
       sodipodi:nodetypes="ccccsssccccccsccc" />
  </g>
</svg>
