<?xml version="1.0" encoding="UTF-8" standalone="no"?>
<!-- Created with Inkscape (http://www.inkscape.org/) -->

<svg
   xmlns:dc="http://purl.org/dc/elements/1.1/"
   xmlns:cc="http://creativecommons.org/ns#"
   xmlns:rdf="http://www.w3.org/1999/02/22-rdf-syntax-ns#"
   xmlns:svg="http://www.w3.org/2000/svg"
   xmlns="http://www.w3.org/2000/svg"
   xmlns:sodipodi="http://sodipodi.sourceforge.net/DTD/sodipodi-0.dtd"
   xmlns:inkscape="http://www.inkscape.org/namespaces/inkscape"
   width="256"
   height="256"
   id="svg2"
   version="1.1"
   inkscape:version="0.48.4 r9939"
   sodipodi:docname="links.svg">
  <defs
     id="defs4" />
  <sodipodi:namedview
     id="base"
     pagecolor="#ffffff"
     bordercolor="#666666"
     borderopacity="1.0"
     inkscape:pageopacity="0.0"
     inkscape:pageshadow="2"
     inkscape:zoom="2.6601562"
     inkscape:cx="111.45474"
     inkscape:cy="125.64851"
     inkscape:document-units="px"
     inkscape:current-layer="g3035"
     showgrid="true"
     inkscape:snap-grids="false"
     inkscape:window-width="1416"
     inkscape:window-height="880"
     inkscape:window-x="207"
     inkscape:window-y="90"
     inkscape:window-maximized="0">
    <inkscape:grid
       type="xygrid"
       id="grid2985"
       empspacing="5"
       visible="true"
       enabled="true"
       snapvisiblegridlinesonly="true" />
  </sodipodi:namedview>
  <metadata
     id="metadata7">
    <rdf:RDF>
      <cc:Work
         rdf:about="">
        <dc:format>image/svg+xml</dc:format>
        <dc:type
           rdf:resource="http://purl.org/dc/dcmitype/StillImage" />
        <dc:title></dc:title>
      </cc:Work>
    </rdf:RDF>
  </metadata>
  <g
     inkscape:label="Layer 1"
     inkscape:groupmode="layer"
     id="layer1"
     transform="translate(0,-796.36218)">
    <g
       id="g3035">
      <path
         id="rect2987"
         transform="translate(0,796.36218)"
         d="M 167.5 11.4375 C 163.16978 11.554633 158.77986 12.735863 154.75 15.0625 L 86.40625 54.53125 C 76.426987 60.29278 71.536791 71.415818 73.28125 82.125 L 84.28125 75.78125 C 84.750007 70.227584 87.844585 65.012562 93.0625 62 L 157.53125 24.75 C 166.00804 19.85592 176.76217 22.74197 181.65625 31.21875 C 186.55033 39.69554 183.69553 50.48092 175.21875 55.375 L 110.71875 92.59375 C 107.35412 94.536316 103.63765 95.250978 100.0625 94.875 L 87.875 101.90625 C 95.660777 105.76084 105.16516 105.77958 113.28125 101.09375 L 181.625 61.625 C 194.52054 54.17976 198.91399 37.80179 191.46875 24.90625 C 186.35015 16.040573 177.02649 11.179807 167.5 11.4375 z "
         style="fill:#ffffff;fill-opacity:1;stroke:none" />
      <path
         id="path2994"
         transform="translate(0,796.36218)"
         d="M 156.75 151.28125 C 153.08702 151.20459 149.38466 151.89186 145.84375 153.375 L 153.5 161.03125 C 159.81618 160.81175 166.01391 163.9993 169.40625 169.875 C 174.30032 178.35179 171.41428 189.10592 162.9375 194 L 98.46875 231.25 C 89.99202 236.1441 79.237852 233.25815 74.34375 224.78125 C 69.449652 216.30445 72.304326 205.51908 80.78125 200.625 L 130.09375 172.15625 L 123.78125 165.84375 L 74.375 194.375 C 61.479539 201.8202 57.086077 218.19825 64.53125 231.09375 C 71.976544 243.98925 88.354555 248.3827 101.25 240.9375 L 169.59375 201.46875 C 182.48929 194.02351 186.91399 177.64553 179.46875 164.75 C 174.58281 156.2873 165.82713 151.47121 156.75 151.28125 z "
         style="fill:#ffffff;fill-opacity:1;stroke:none" />
      <path
         id="path2996"
         transform="translate(0,796.36218)"
         d="M 92.3125 77.0625 C 88.072803 77.204672 83.885939 78.989061 79.9375 82.9375 C 69.40834 93.46666 74.22084 105.65834 84.75 116.1875 L 140.5625 172 C 150.2349 181.6724 161.29058 186.50371 171.1875 179.0625 L 162.90625 170.8125 C 156.83858 174.80195 151.10176 170.35176 144.9375 164.1875 L 92.28125 111.53125 C 85.35998 104.60998 80.60998 98.23377 87.53125 91.3125 C 91.995408 86.848342 96.237321 87.28397 100.53125 90 L 109.8125 84.625 C 104.1821 79.841756 98.183511 76.865625 92.3125 77.0625 z M 127.875 102.4375 L 119.09375 107.5 L 160.375 148.78125 C 161.22394 149.63019 162.04551 150.44759 162.8125 151.28125 L 169.75 144.34375 C 169.49909 144.08389 169.25794 143.82044 169 143.5625 L 127.875 102.4375 z "
         style="fill:#ffffff;fill-opacity:1;stroke:none" />
    </g>
  </g>
</svg>
