<?xml version="1.0" encoding="UTF-8" standalone="no"?>
<!-- Created with Inkscape (http://www.inkscape.org/) -->

<svg
   xmlns:dc="http://purl.org/dc/elements/1.1/"
   xmlns:cc="http://creativecommons.org/ns#"
   xmlns:rdf="http://www.w3.org/1999/02/22-rdf-syntax-ns#"
   xmlns:svg="http://www.w3.org/2000/svg"
   xmlns="http://www.w3.org/2000/svg"
   xmlns:sodipodi="http://sodipodi.sourceforge.net/DTD/sodipodi-0.dtd"
   xmlns:inkscape="http://www.inkscape.org/namespaces/inkscape"
   width="256"
   height="256"
   id="svg3019"
   version="1.1"
   inkscape:version="0.48.4 r9939"
   sodipodi:docname="projects.svg">
  <defs
     id="defs3021" />
  <sodipodi:namedview
     id="base"
     pagecolor="#007710"
     bordercolor="#666666"
     borderopacity="1.0"
     inkscape:pageopacity="0"
     inkscape:pageshadow="2"
     inkscape:zoom="2.3398438"
     inkscape:cx="128"
     inkscape:cy="128"
     inkscape:document-units="px"
     inkscape:current-layer="layer1"
     showgrid="true"
     inkscape:window-width="1177"
     inkscape:window-height="798"
     inkscape:window-x="0"
     inkscape:window-y="27"
     inkscape:window-maximized="0"
     inkscape:snap-grids="false">
    <inkscape:grid
       type="xygrid"
       id="grid3027"
       empspacing="5"
       visible="true"
       enabled="true"
       snapvisiblegridlinesonly="true" />
  </sodipodi:namedview>
  <metadata
     id="metadata3024">
    <rdf:RDF>
      <cc:Work
         rdf:about="">
        <dc:format>image/svg+xml</dc:format>
        <dc:type
           rdf:resource="http://purl.org/dc/dcmitype/StillImage" />
        <dc:title></dc:title>
      </cc:Work>
    </rdf:RDF>
  </metadata>
  <g
     inkscape:label="Layer 1"
     inkscape:groupmode="layer"
     id="layer1"
     transform="translate(0,-796.36218)">
    <path
       style="fill:#ffffff;fill-opacity:1;stroke:none"
       d="M 80 25.5 C 74.46 25.5 70 29.96 70 35.5 L 70 40.5 C 70 46.04 74.46 50.5 80 50.5 L 80.5 50.5 L 98 50.5 L 98 115.5 C 98 115.5 45.741661 171.29763 43 220.5 C 43 226.04 47.46 230.5 53 230.5 L 203 230.5 C 208.54 230.5 213 226.04 213 220.5 C 213 171.18639 158 115.5 158 115.5 L 158 50.5 L 175 50.5 L 175.5 50.5 C 181.04 50.5 185.5 46.04 185.5 40.5 L 185.5 35.5 C 185.5 29.96 181.04 25.5 175.5 25.5 L 175 25.5 L 150 25.5 L 105 25.5 L 80.5 25.5 L 80 25.5 z M 105 50.5 L 150 50.5 L 150 116 C 150 116 199.71875 171.47732 199.71875 213.09375 C 199.71875 217.76905 195.95654 221.53125 191.28125 221.53125 L 64.71875 221.53125 C 60.04346 221.53125 56.28125 217.76905 56.28125 213.09375 C 58.59497 171.57119 105 116 105 116 L 105 50.5 z "
       transform="translate(0,796.36218)"
       id="rect3029" />
    <path
       style="fill:#ffffff;fill-opacity:0.66666669;stroke:none"
       d="m 146.6875,145.59375 c -22.90146,-0.16983 -45.85564,16.54137 -68.824395,9.97887 0,0 -19.268135,24.97353 -21.581855,57.52113 0,4.6753 3.76221,8.4375 8.4375,8.4375 l 126.5625,0 c 4.67529,0 8.13569,-3.77195 8.4375,-8.4375 C 201.00089,193.27365 185,166 185,166 171.25,150.53125 158.6835,145.68271 146.6875,145.59375 z M 148.78125,161 c 5.52285,0 10,4.47715 10,10 0,5.52285 -4.47715,10 -10,10 -5.52285,0 -10,-4.47715 -10,-10 0,-5.52285 4.47715,-10 10,-10 z m -47.5,30 c 4.14214,0 7.5,3.35786 7.5,7.5 0,4.14214 -3.35786,7.5 -7.5,7.5 -4.142136,0 -7.5,-3.35786 -7.5,-7.5 0,-4.14214 3.357864,-7.5 7.5,-7.5 z m 42.5,10 c 2.76142,0 5,2.23858 5,5 0,2.76142 -2.23858,5 -5,5 -2.76142,0 -5,-2.23858 -5,-5 0,-2.76142 2.23858,-5 5,-5 z"
       transform="translate(0,796.36218)"
       id="path3039"
       inkscape:connector-curvature="0"
       sodipodi:nodetypes="sccssscssssssssssssssss" />
    <path
       sodipodi:type="arc"
       style="fill:#ffffff;fill-opacity:0.66666669;stroke:none"
       id="path3054"
       sodipodi:cx="117.5"
       sodipodi:cy="128.5"
       sodipodi:rx="7.5"
       sodipodi:ry="7.5"
       d="m 125,128.5 a 7.5,7.5 0 1 1 -15,0 7.5,7.5 0 1 1 15,0 z"
       transform="translate(0,796.36218)" />
    <path
       sodipodi:type="arc"
       style="fill:#ffffff;fill-opacity:0.66666669;stroke:none"
       id="path3056"
       sodipodi:cx="125"
       sodipodi:cy="81"
       sodipodi:rx="5"
       sodipodi:ry="5"
       d="m 130,81 a 5,5 0 1 1 -10,0 5,5 0 1 1 10,0 z"
       transform="translate(0,796.36218)" />
    <path
       sodipodi:type="arc"
       style="fill:#ffffff;fill-opacity:0.66666669;stroke:none"
       id="path3058"
       sodipodi:cx="135"
       sodipodi:cy="111"
       sodipodi:rx="5"
       sodipodi:ry="5"
       d="m 140,111 a 5,5 0 1 1 -10,0 5,5 0 1 1 10,0 z"
       transform="translate(0,796.36218)" />
  </g>
</svg>
