<?xml version="1.0" encoding="UTF-8" standalone="no"?>
<!-- Created with Inkscape (http://www.inkscape.org/) -->

<svg
   xmlns:dc="http://purl.org/dc/elements/1.1/"
   xmlns:cc="http://creativecommons.org/ns#"
   xmlns:rdf="http://www.w3.org/1999/02/22-rdf-syntax-ns#"
   xmlns:svg="http://www.w3.org/2000/svg"
   xmlns="http://www.w3.org/2000/svg"
   xmlns:sodipodi="http://sodipodi.sourceforge.net/DTD/sodipodi-0.dtd"
   xmlns:inkscape="http://www.inkscape.org/namespaces/inkscape"
   width="256"
   height="256"
   id="svg2"
   version="1.1"
   inkscape:version="0.48.4 r9939"
   sodipodi:docname="back.svg">
  <defs
     id="defs4" />
  <sodipodi:namedview
     id="base"
     pagecolor="#ffffff"
     bordercolor="#666666"
     borderopacity="1.0"
     inkscape:pageopacity="0.0"
     inkscape:pageshadow="2"
     inkscape:zoom="2.3046875"
     inkscape:cx="73.762712"
     inkscape:cy="128"
     inkscape:document-units="px"
     inkscape:current-layer="layer1"
     showgrid="true"
     inkscape:window-width="1920"
     inkscape:window-height="1014"
     inkscape:window-x="0"
     inkscape:window-y="27"
     inkscape:window-maximized="1">
    <inkscape:grid
       type="xygrid"
       id="grid4099"
       empspacing="5"
       visible="true"
       enabled="true"
       snapvisiblegridlinesonly="true" />
  </sodipodi:namedview>
  <metadata
     id="metadata7">
    <rdf:RDF>
      <cc:Work
         rdf:about="">
        <dc:format>image/svg+xml</dc:format>
        <dc:type
           rdf:resource="http://purl.org/dc/dcmitype/StillImage" />
        <dc:title></dc:title>
      </cc:Work>
    </rdf:RDF>
  </metadata>
  <g
     inkscape:label="Layer 1"
     inkscape:groupmode="layer"
     id="layer1"
     transform="translate(0,-796.36218)">
    <path
       style="fill:#00ffff;fill-opacity:1;stroke:none"
       d="M 100.8125,61.59375 30.8125,111 c 27.935026,0.18792 118.78812,-0.25 140,-0.25 14.08306,0.89037 24.1875,10.48116 24.1875,28.625 0,16.84197 -10.55002,26.84375 -24.1875,26.84375 C 137.37556,165.77334 102.82862,166 69,166 l 0,28.40625 101.8125,0 0,-0.0312 c 30.08783,-0.33488 54.375,-24.83286 54.375,-55 0,-30.16692 -24.28747,-54.633525 -54.375,-54.96875 -0.20819,-0.0023 -0.41626,-0.03125 -0.625,-0.03125 l 0,0.03125 -69.375,0 z"
       transform="translate(0,796.36218)"
       id="path4101"
       inkscape:connector-curvature="0"
       sodipodi:nodetypes="cccscccccsscccc" />
  </g>
</svg>
